<?xml version="1.0" encoding="UTF-8" standalone="no" ?>
<!DOCTYPE svg PUBLIC "-//W3C//DTD SVG 1.1//EN" "http://www.w3.org/Graphics/SVG/1.1/DTD/svg11.dtd">
<svg xmlns="http://www.w3.org/2000/svg" xmlns:xlink="http://www.w3.org/1999/xlink" version="1.1" width="400" height="400" viewBox="0 0 400 400" xml:space="preserve">
<desc>Created with Fabric.js 3.6.2</desc>
<defs>
</defs>
<g transform="matrix(0.12 0 0 0.12 200 200)"  >
<path style="stroke: none; stroke-width: 1; stroke-dasharray: none; stroke-linecap: butt; stroke-dashoffset: 0; stroke-linejoin: miter; stroke-miterlimit: 4; fill: rgb(0,0,0); fill-rule: nonzero; opacity: 1;"  transform=" translate(-896.74, -896)" d="M 1703 478 q 40 57 18 129 l -275 906 q -19 64 -76.5 107.5 t -122.5 43.5 h -923 q -77 0 -148.5 -53.5 t -99.5 -131.5 q -24 -67 -2 -127 q 0 -4 3 -27 t 4 -37 q 1 -8 -3 -21.5 t -3 -19.5 q 2 -11 8 -21 t 16.5 -23.5 t 16.5 -23.5 q 23 -38 45 -91.5 t 30 -91.5 q 3 -10 0.5 -30 t -0.5 -28 q 3 -11 17 -28 t 17 -23 q 21 -36 42 -92 t 25 -90 q 1 -9 -2.5 -32 t 0.5 -28 q 4 -13 22 -30.5 t 22 -22.5 q 19 -26 42.5 -84.5 t 27.5 -96.5 q 1 -8 -3 -25.5 t -2 -26.5 q 2 -8 9 -18 t 18 -23 t 17 -21 q 8 -12 16.5 -30.5 t 15 -35 t 16 -36 t 19.5 -32 t 26.5 -23.5 t 36 -11.5 t 47.5 5.5 l -1 3 q 38 -9 51 -9 h 761 q 74 0 114 56 t 18 130 l -274 906 q -36 119 -71.5 153.5 t -128.5 34.5 h -869 q -27 0 -38 15 q -11 16 -1 43 q 24 70 144 70 h 923 q 29 0 56 -15.5 t 35 -41.5 l 300 -987 q 7 -22 5 -57 q 38 15 59 43 z m -1064 2 q -4 13 2 22.5 t 20 9.5 h 608 q 13 0 25.5 -9.5 t 16.5 -22.5 l 21 -64 q 4 -13 -2 -22.5 t -20 -9.5 h -608 q -13 0 -25.5 9.5 t -16.5 22.5 z m -83 256 q -4 13 2 22.5 t 20 9.5 h 608 q 13 0 25.5 -9.5 t 16.5 -22.5 l 21 -64 q 4 -13 -2 -22.5 t -20 -9.5 h -608 q -13 0 -25.5 9.5 t -16.5 22.5 z" stroke-linecap="round" />
</g>
</svg>